<?xml version="1.0" encoding="utf-8"?>
<!-- Generator: Adobe Illustrator 16.0.0, SVG Export Plug-In . SVG Version: 6.00 Build 0)  -->
<!DOCTYPE svg PUBLIC "-//W3C//DTD SVG 1.1//EN" "http://www.w3.org/Graphics/SVG/1.1/DTD/svg11.dtd">
<svg version="1.1" id="Layer_1" xmlns="http://www.w3.org/2000/svg" xmlns:xlink="http://www.w3.org/1999/xlink" x="0px" y="0px"
	 width="1267.704px" height="1262.294px" viewBox="231.661 324.143 1267.704 1262.294"
	 enable-background="new 231.661 324.143 1267.704 1262.294" xml:space="preserve">
<g>
	<path fill="#000000" d="M865.582,1586.438l177.355-997.425c169.041,0,222.361,18.537,230.065,94.199
		c0,0,113.405-42.283,170.596-128.158C1220.406,451.631,996.15,446.967,996.15,446.967L865.292,606.35l0.295-0.02L734.725,446.942
		c0,0-224.262,4.669-447.424,108.091c57.146,85.876,170.591,128.158,170.591,128.158c7.744-75.667,61-94.203,228.911-94.323
		L865.582,1586.438"/>
	<path fill="#000000" d="M865.513,400.93c180.419-1.38,386.924,27.91,598.333,120.05c28.255-50.856,35.519-73.333,35.519-73.333
		c-231.101-91.429-447.519-122.719-633.877-123.503c-186.354,0.785-402.761,32.08-633.827,123.503c0,0,10.308,27.686,35.494,73.333
		c211.364-92.14,417.914-121.43,598.338-120.05H865.513"/>
</g>
</svg>
